# xmcd
#
# Track frame offsets: 
#        150
#        28921
#        56828
#        70519
#        82426
#        106969
#        127117
#        142193
#        157951
#        178648
#
# Disc length: 2605 seconds
#
# Revision: 0
# Processed by: cddbd v1.5.2PL0 Copyright (c) Steve Scherf et al.
# Submitted via: ExactAudioCopy v0.99pb4
#
DISCID=940a2b0a
DTITLE=JEFF STRAHAN - Monkey Around
DYEAR=2013
DGENRE=Blues
TTITLE0=Don't Get Too Low
TTITLE1=Curtains
TTITLE2=Dangerous Curves
TTITLE3=Monkey Around
TTITLE4=The One
TTITLE5=Can't Change Me
TTITLE6=Hard Headed Woman
TTITLE7=4:20
TTITLE8=Baptist Bootleggers
TTITLE9=Two Shades
EXTD=
EXTT0=
EXTT1=
EXTT2=
EXTT3=
EXTT4=
EXTT5=
EXTT6=
EXTT7=
EXTT8=
EXTT9=
PLAYORDER=
